<svg xmlns="http://www.w3.org/2000/svg" version="1.1" xmlns:xlink="http://www.w3.org/1999/xlink" xmlns:svgjs="http://svgjs.com/svgjs" width="1920" height="1080" preserveAspectRatio="none" viewBox="0 0 1920 1080"><g mask="url(&quot;#SvgjsMask1136&quot;)" fill="none"><path d="M190.86 1036.31L203.05 1036.31L203.05 1097.76L190.86 1097.76z" stroke="#e73635"></path><path d="M1322.3 900.99a26.99 26.99 0 1 0 46.01-28.24z" fill="#d3b714"></path><path d="M1502.83 955.56L1574.44 955.56L1574.44 1055.07L1502.83 1055.07z" stroke="#d3b714"></path><path d="M198.65 130 a64.11 64.11 0 1 0 128.22 0 a64.11 64.11 0 1 0 -128.22 0z" fill="#e73635"></path><path d="M1164.75 1018.09L1199.31 1018.09L1199.31 1024.59L1164.75 1024.59z" fill="#d3b714"></path><path d="M1130.19 239.36L1193.31 239.36L1193.31 250.22L1130.19 250.22z" stroke="#d3b714"></path><path d="M1508.89 99.29a35.93 35.93 0 1 0 61.66 36.9z" stroke="#d3b714"></path><path d="M122.79 782.36a53.18 53.18 0 1 0 42.8-97.36z" stroke="#037b0b"></path><path d="M1595.6 316.8 a96.24 96.24 0 1 0 192.48 0 a96.24 96.24 0 1 0 -192.48 0z" fill="#e73635"></path><path d="M1605.65 953.3 a93.84 93.84 0 1 0 187.68 0 a93.84 93.84 0 1 0 -187.68 0z" stroke="#e73635"></path><path d="M848.15 884.4L899.54 884.4L899.54 935.79L848.15 935.79z" fill="#037b0b"></path><path d="M137.26 300.36L153.57 300.36L153.57 390.86L137.26 390.86z" stroke="#037b0b"></path><path d="M1299.45 274.23L1367.35 274.23L1367.35 320.44L1299.45 320.44z" stroke="#d3b714"></path><path d="M797.86 925.93a77.23 77.23 0 1 0 80.66 131.73z" fill="#e73635"></path><path d="M130.4 997.15L185.79 997.15L185.79 1052.54L130.4 1052.54z" stroke="#d3b714"></path><path d="M669.43 1005.32L694.68 1005.32L694.68 1080.77L669.43 1080.77z" stroke="#d3b714"></path><path d="M1779.13 226.51L1876.53 226.51L1876.53 323.91L1779.13 323.91z" fill="#d3b714"></path><path d="M1444.71 503.08a43.64 43.64 0 1 0-82.03-29.82z" stroke="#d3b714"></path><path d="M1347.13 671.3L1454.13 671.3L1454.13 778.3L1347.13 778.3z" fill="#d3b714"></path><path d="M392.22 88.68L459.25 88.68L459.25 155.71L392.22 155.71z" fill="#e73635"></path><path d="M1569.18 276.96a27.33 27.33 0 1 0-14.03-52.83z" stroke="#d3b714"></path><path d="M349.11 25.54a80.58 80.58 0 1 0 161.06 5.86z" fill="#037b0b"></path><path d="M1037.69 927.67a99.02 99.02 0 1 0 126.51-152.37z" fill="#037b0b"></path></g><defs><mask id="SvgjsMask1136"><rect width="1920" height="1080" fill="#ffffff"></rect></mask></defs></svg>