<?xml version="1.0" encoding="UTF-8"?>
<svg xmlns="http://www.w3.org/2000/svg" xmlns:xlink="http://www.w3.org/1999/xlink" viewBox="0 0 100 100" width="100px" height="100px">
<g id="surface43234951">
<path style=" stroke:none;fill-rule:nonzero;fill:rgb(64.313728%,67.450982%,76.862746%);fill-opacity:1;" d="M 64.5 16 C 54.847656 16 47 23.847656 47 33.5 C 47 34.613281 47.238281 35.648438 47.441406 36.699219 C 25.882812 34.792969 15.449219 21.402344 14.003906 19.414062 C 13.804688 19.136719 13.480469 18.984375 13.140625 19 C 12.800781 19.019531 12.496094 19.207031 12.324219 19.5 C 10.832031 22.097656 10 25.328125 10 28.5 C 10 33.6875 12.464844 38.539062 16.300781 41.707031 C 15.199219 41.527344 14.28125 41.289062 13.566406 41.050781 C 12.160156 40.582031 11.554688 40.167969 11.554688 40.167969 C 11.246094 39.964844 10.851562 39.945312 10.527344 40.117188 C 10.203125 40.292969 10 40.632812 10 41 C 10 48.238281 14.566406 54.386719 20.953125 56.839844 C 20.621094 56.859375 20.335938 57 20 57 C 19.148438 57 17.84375 56.925781 17.0625 56.808594 C 16.707031 56.757812 16.351562 56.898438 16.128906 57.183594 C 15.90625 57.464844 15.855469 57.847656 15.992188 58.179688 L 16.078125 58.382812 C 16.078125 58.382812 16.078125 58.386719 16.078125 58.386719 C 18.617188 64.390625 24.800781 68.550781 31.519531 69.582031 C 26.296875 73.539062 19.507812 76 12.5 76 L 11 76 C 10.558594 76 10.171875 76.289062 10.042969 76.710938 C 9.914062 77.132812 10.078125 77.585938 10.445312 77.832031 C 16.664062 81.976562 24.953125 84 33.5 84 C 60.273438 84 82 62.273438 82 35.5 C 82 35.496094 82 35.492188 82 35.488281 C 82 35.488281 81.992188 34.878906 81.984375 34.238281 C 81.980469 33.851562 81.976562 33.640625 81.972656 33.359375 C 86.863281 30.441406 89.800781 26.597656 89.800781 26.597656 C 90.058594 26.253906 90.066406 25.785156 89.820312 25.429688 C 89.574219 25.078125 89.132812 24.921875 88.71875 25.039062 C 88.71875 25.039062 85.488281 25.820312 82.074219 26.207031 C 86.054688 22.878906 87.449219 19.316406 87.449219 19.316406 C 87.578125 18.925781 87.457031 18.496094 87.144531 18.230469 C 86.828125 17.96875 86.382812 17.925781 86.023438 18.121094 C 86.023438 18.121094 81.074219 20.714844 76.613281 20.945312 C 73.46875 17.90625 69.214844 16 64.5 16 Z M 64.5 18 C 68.855469 18 72.777344 19.796875 75.59375 22.6875 C 75.789062 22.886719 76.054688 22.996094 76.332031 22.988281 C 79.464844 22.914062 82.203125 21.972656 84.257812 21.105469 C 83.285156 22.546875 81.679688 24.398438 79.082031 26.074219 C 78.671875 26.34375 78.515625 26.867188 78.707031 27.3125 C 78.761719 27.433594 78.820312 27.621094 78.914062 27.855469 C 79.066406 28.246094 79.445312 28.5 79.867188 28.488281 C 82.085938 28.441406 84.332031 28.070312 86.09375 27.710938 C 84.765625 29.007812 82.863281 30.621094 80.476562 31.964844 C 80.148438 32.152344 79.953125 32.503906 79.96875 32.878906 C 79.96875 32.878906 79.980469 33.625 79.988281 34.265625 C 79.992188 34.902344 80 35.511719 80 35.511719 C 79.996094 61.199219 59.191406 82 33.5 82 C 26.597656 82 19.988281 80.527344 14.601562 77.804688 C 22.152344 77.332031 29.386719 74.464844 34.667969 69.746094 C 34.972656 69.472656 35.082031 69.042969 34.941406 68.65625 C 34.796875 68.269531 34.4375 68.011719 34.027344 68 C 27.71875 67.824219 21.648438 64.082031 18.757812 58.917969 C 19.191406 58.9375 19.628906 59 20 59 C 22.214844 59 24.339844 58.652344 26.335938 57.945312 C 26.78125 57.785156 27.058594 57.332031 26.992188 56.859375 C 26.925781 56.390625 26.535156 56.03125 26.0625 56.003906 C 18.746094 55.554688 12.925781 49.828125 12.15625 42.601562 C 12.511719 42.757812 12.433594 42.78125 12.933594 42.949219 C 14.527344 43.480469 16.890625 44 20 44 C 20.46875 44 20.875 43.675781 20.976562 43.21875 C 21.078125 42.761719 20.851562 42.296875 20.429688 42.097656 C 15.46875 39.753906 12 34.265625 12 28.5 C 12 26.199219 12.609375 23.910156 13.503906 21.890625 C 16.601562 25.773438 27.421875 37.484375 48.539062 38.863281 C 48.859375 38.882812 49.171875 38.746094 49.378906 38.496094 C 49.582031 38.246094 49.652344 37.910156 49.566406 37.601562 C 49.207031 36.285156 49 34.917969 49 33.5 C 49 24.925781 55.925781 18 64.5 18 Z M 64.5 21 C 60.8125 21 57.496094 22.617188 55.207031 25.167969 C 55.085938 25.296875 55.042969 25.488281 55.097656 25.660156 C 55.15625 25.832031 55.296875 25.960938 55.476562 25.996094 C 55.652344 26.03125 55.835938 25.96875 55.953125 25.832031 C 58.0625 23.484375 61.105469 22 64.5 22 C 67.363281 22 70.046875 23.046875 72.167969 24.953125 C 72.296875 25.085938 72.488281 25.136719 72.667969 25.082031 C 72.84375 25.027344 72.976562 24.878906 73.011719 24.699219 C 73.046875 24.515625 72.980469 24.328125 72.835938 24.210938 C 70.539062 22.144531 67.609375 21 64.5 21 Z M 53.617188 27.992188 C 53.417969 27.988281 53.230469 28.105469 53.148438 28.289062 C 52.699219 29.273438 52.371094 30.320312 52.1875 31.414062 C 52.140625 31.6875 52.324219 31.945312 52.597656 31.992188 C 52.867188 32.039062 53.128906 31.855469 53.171875 31.582031 C 53.34375 30.574219 53.644531 29.609375 54.058594 28.707031 C 54.132812 28.554688 54.121094 28.375 54.03125 28.230469 C 53.941406 28.085938 53.785156 27.996094 53.617188 27.992188 Z M 52.492188 32.992188 C 52.359375 32.996094 52.234375 33.050781 52.140625 33.144531 C 52.046875 33.238281 51.996094 33.367188 52 33.5 C 52 33.871094 52.042969 34.21875 52.074219 34.542969 C 52.082031 34.722656 52.191406 34.886719 52.355469 34.964844 C 52.519531 35.042969 52.714844 35.023438 52.859375 34.917969 C 53.007812 34.816406 53.089844 34.636719 53.070312 34.457031 C 53.039062 34.113281 53 33.789062 53 33.5 C 53.003906 33.363281 52.949219 33.234375 52.855469 33.136719 C 52.757812 33.042969 52.628906 32.988281 52.492188 32.992188 Z M 72.546875 52.992188 C 72.347656 52.992188 72.164062 53.105469 72.082031 53.289062 C 67.25 63.730469 58.304688 71.886719 47.335938 75.671875 C 47.074219 75.765625 46.9375 76.050781 47.027344 76.308594 C 47.117188 76.570312 47.402344 76.710938 47.664062 76.617188 C 58.890625 72.742188 68.042969 64.398438 72.992188 53.710938 C 73.0625 53.558594 73.054688 53.375 72.964844 53.230469 C 72.875 53.085938 72.71875 52.996094 72.550781 52.992188 Z M 41.488281 77.238281 C 41.460938 77.242188 41.433594 77.246094 41.40625 77.25 C 39.789062 77.554688 38.140625 77.769531 36.464844 77.886719 C 36.1875 77.902344 35.980469 78.144531 36 78.417969 C 36.019531 78.695312 36.257812 78.902344 36.535156 78.882812 C 38.25 78.761719 39.9375 78.546875 41.59375 78.234375 C 41.851562 78.1875 42.03125 77.949219 42.003906 77.6875 C 41.976562 77.425781 41.753906 77.230469 41.488281 77.242188 Z M 32.511719 77.972656 C 32.332031 77.96875 32.164062 78.058594 32.070312 78.210938 C 31.980469 78.363281 31.976562 78.554688 32.0625 78.710938 C 32.148438 78.867188 32.3125 78.96875 32.492188 78.972656 C 32.808594 78.976562 33.140625 79 33.5 79 C 33.679688 79.003906 33.847656 78.90625 33.9375 78.753906 C 34.03125 78.597656 34.03125 78.402344 33.9375 78.246094 C 33.847656 78.09375 33.679688 77.996094 33.5 78 C 33.183594 78 32.859375 77.976562 32.511719 77.972656 Z M 32.511719 77.972656 "/>
</g>
</svg>
